<svg width="18" height="18" viewBox="0 0 18 18" fill="none" xmlns="http://www.w3.org/2000/svg">
<path d="M6.8648 4.056C7.81505 2.352 8.2898 1.5 9.00005 1.5C9.7103 1.5 10.1851 2.352 11.1353 4.056L11.3813 4.497C11.6513 4.9815 11.7863 5.22375 11.9963 5.3835C12.2063 5.54325 12.4688 5.6025 12.9938 5.721L13.4708 5.829C15.3158 6.24675 16.2376 6.45525 16.4573 7.161C16.6763 7.866 16.0478 8.60175 14.7901 10.0725L14.4646 10.4528C14.1076 10.8705 13.9283 11.0798 13.8481 11.3377C13.7678 11.5965 13.7948 11.8755 13.8488 12.4327L13.8983 12.9405C14.0881 14.9032 14.1833 15.8843 13.6088 16.32C13.0343 16.7565 12.1703 16.3582 10.4438 15.5632L9.99605 15.3577C9.50555 15.1312 9.2603 15.0187 9.00005 15.0187C8.7398 15.0187 8.49455 15.1312 8.00405 15.3577L7.55705 15.5632C5.8298 16.3582 4.9658 16.7557 4.39205 16.3207C3.8168 15.8842 3.91205 14.9032 4.1018 12.9405L4.1513 12.4335C4.2053 11.8755 4.2323 11.5965 4.1513 11.3385C4.0718 11.0798 3.89255 10.8705 3.53555 10.4535L3.21005 10.0725C1.9523 8.6025 1.3238 7.86675 1.5428 7.161C1.76255 6.45525 2.68505 6.246 4.53005 5.829L5.00705 5.721C5.5313 5.6025 5.79305 5.54325 6.0038 5.3835C6.2138 5.22375 6.3488 4.9815 6.6188 4.497L6.8648 4.056Z" fill="#6E2CBD"/>
</svg>
