<svg width="95" height="30" viewBox="0 0 95 30" fill="none" xmlns="http://www.w3.org/2000/svg">
<rect width="95" height="30" fill="#121212"/>
<path d="M16.8467 10.4569C16.7498 10.4569 16.6569 10.4185 16.5884 10.3502C16.5198 10.2818 16.4811 10.189 16.4808 10.0921C16.4808 9.41347 16.7504 8.76259 17.2303 8.2827C17.7102 7.8028 18.3611 7.5332 19.0398 7.5332C19.2424 7.5332 19.4046 7.69747 19.4046 7.89907C19.404 8.577 19.1344 9.22701 18.6551 9.70638C18.1757 10.1857 17.5257 10.4553 16.8478 10.4559L16.8467 10.4569ZM22.1832 18.154C22.324 18.2596 22.3699 18.4527 22.2899 18.6095C21.0046 21.1844 19.9774 22.4665 19.0398 22.4665C18.6035 22.4665 18.1747 22.3257 17.7566 22.0505C17.4579 21.8538 17.1098 21.7454 16.7522 21.7376C16.3946 21.7299 16.0421 21.8232 15.7352 22.0068C15.2296 22.3097 14.7464 22.4665 14.2888 22.4665C12.9086 22.4665 10.6334 18.2191 10.6334 15.8873C10.6334 13.3999 11.9379 11.5012 13.923 11.5012C14.8563 11.5012 15.6627 11.6399 16.34 11.9172C16.627 12.0367 16.9512 12.0281 17.2318 11.8937C17.7811 11.6292 18.5054 11.5012 19.4056 11.5012C20.5043 11.5012 21.46 12.0484 22.2558 13.1097C22.314 13.1873 22.339 13.2847 22.3254 13.3807C22.3118 13.4767 22.2607 13.5634 22.1832 13.6217C21.2947 14.2873 20.867 15.0361 20.867 15.8873C20.867 16.7396 21.2947 17.4873 22.1832 18.154Z" fill="#F7F5F5" stroke="#F7F5F5"/>
<path d="M31.508 7H30.6174L30.6232 6.54004H31.508C31.8127 6.54004 32.0666 6.47656 32.2697 6.34961C32.4729 6.2207 32.6252 6.04102 32.7268 5.81055C32.8303 5.57812 32.882 5.30664 32.882 4.99609V4.73535C32.882 4.49121 32.8527 4.27441 32.7941 4.08496C32.7355 3.89355 32.6496 3.73242 32.5363 3.60156C32.423 3.46875 32.2844 3.36816 32.1203 3.2998C31.9582 3.23145 31.7717 3.19727 31.5607 3.19727H30.5998V2.73438H31.5607C31.84 2.73438 32.0949 2.78125 32.3254 2.875C32.5559 2.9668 32.7541 3.10059 32.9201 3.27637C33.0881 3.4502 33.217 3.66113 33.3068 3.90918C33.3967 4.15527 33.4416 4.43262 33.4416 4.74121V4.99609C33.4416 5.30469 33.3967 5.58301 33.3068 5.83105C33.217 6.07715 33.0871 6.28711 32.9172 6.46094C32.7492 6.63477 32.5461 6.76855 32.3078 6.8623C32.0715 6.9541 31.8049 7 31.508 7ZM30.9191 2.73438V7H30.3537V2.73438H30.9191ZM33.8256 5.4502V5.38281C33.8256 5.1543 33.8588 4.94238 33.9252 4.74707C33.9916 4.5498 34.0873 4.37891 34.2123 4.23438C34.3373 4.08789 34.4887 3.97461 34.6664 3.89453C34.8442 3.8125 35.0434 3.77148 35.2641 3.77148C35.4868 3.77148 35.687 3.8125 35.8647 3.89453C36.0444 3.97461 36.1967 4.08789 36.3217 4.23438C36.4487 4.37891 36.5454 4.5498 36.6118 4.74707C36.6782 4.94238 36.7114 5.1543 36.7114 5.38281V5.4502C36.7114 5.67871 36.6782 5.89062 36.6118 6.08594C36.5454 6.28125 36.4487 6.45215 36.3217 6.59863C36.1967 6.74316 36.0454 6.85645 35.8676 6.93848C35.6918 7.01855 35.4926 7.05859 35.27 7.05859C35.0473 7.05859 34.8471 7.01855 34.6694 6.93848C34.4916 6.85645 34.3393 6.74316 34.2123 6.59863C34.0873 6.45215 33.9916 6.28125 33.9252 6.08594C33.8588 5.89062 33.8256 5.67871 33.8256 5.4502ZM34.3676 5.38281V5.4502C34.3676 5.6084 34.3862 5.75781 34.4233 5.89844C34.4604 6.03711 34.5161 6.16016 34.5903 6.26758C34.6664 6.375 34.7612 6.45996 34.8745 6.52246C34.9877 6.58301 35.1196 6.61328 35.27 6.61328C35.4184 6.61328 35.5483 6.58301 35.6596 6.52246C35.7729 6.45996 35.8666 6.375 35.9409 6.26758C36.0151 6.16016 36.0707 6.03711 36.1079 5.89844C36.1469 5.75781 36.1664 5.6084 36.1664 5.4502V5.38281C36.1664 5.22656 36.1469 5.0791 36.1079 4.94043C36.0707 4.7998 36.0141 4.67578 35.9379 4.56836C35.8637 4.45898 35.77 4.37305 35.6567 4.31055C35.5454 4.24805 35.4145 4.2168 35.2641 4.2168C35.1157 4.2168 34.9848 4.24805 34.8715 4.31055C34.7602 4.37305 34.6664 4.45898 34.5903 4.56836C34.5161 4.67578 34.4604 4.7998 34.4233 4.94043C34.3862 5.0791 34.3676 5.22656 34.3676 5.38281ZM37.9538 6.4375L38.7682 3.83008H39.1257L39.0554 4.34863L38.2262 7H37.8776L37.9538 6.4375ZM37.4059 3.83008L38.1003 6.4668L38.1501 7H37.7839L36.8639 3.83008H37.4059ZM39.905 6.44629L40.5671 3.83008H41.1061L40.1862 7H39.8229L39.905 6.44629ZM39.2048 3.83008L40.0016 6.39355L40.0925 7H39.7468L38.8942 4.34277L38.8239 3.83008H39.2048ZM41.9648 4.50684V7H41.4228V3.83008H41.9355L41.9648 4.50684ZM41.8359 5.29492L41.6103 5.28613C41.6122 5.06934 41.6445 4.86914 41.707 4.68555C41.7695 4.5 41.8573 4.33887 41.9706 4.20215C42.0839 4.06543 42.2187 3.95996 42.3749 3.88574C42.5331 3.80957 42.7079 3.77148 42.8993 3.77148C43.0556 3.77148 43.1962 3.79297 43.3212 3.83594C43.4462 3.87695 43.5527 3.94336 43.6405 4.03516C43.7304 4.12695 43.7987 4.24609 43.8456 4.39258C43.8925 4.53711 43.9159 4.71387 43.9159 4.92285V7H43.371V4.91699C43.371 4.75098 43.3466 4.61816 43.2978 4.51855C43.2489 4.41699 43.1777 4.34375 43.0839 4.29883C42.9902 4.25195 42.8749 4.22852 42.7382 4.22852C42.6034 4.22852 42.4804 4.25684 42.3691 4.31348C42.2597 4.37012 42.165 4.44824 42.0849 4.54785C42.0068 4.64746 41.9452 4.76172 41.9003 4.89062C41.8573 5.01758 41.8359 5.15234 41.8359 5.29492ZM45.088 2.5V7H44.5431V2.5H45.088ZM45.5746 5.4502V5.38281C45.5746 5.1543 45.6078 4.94238 45.6742 4.74707C45.7406 4.5498 45.8363 4.37891 45.9613 4.23438C46.0863 4.08789 46.2377 3.97461 46.4154 3.89453C46.5932 3.8125 46.7924 3.77148 47.0131 3.77148C47.2357 3.77148 47.4359 3.8125 47.6137 3.89453C47.7934 3.97461 47.9457 4.08789 48.0707 4.23438C48.1977 4.37891 48.2943 4.5498 48.3607 4.74707C48.4271 4.94238 48.4604 5.1543 48.4604 5.38281V5.4502C48.4604 5.67871 48.4271 5.89062 48.3607 6.08594C48.2943 6.28125 48.1977 6.45215 48.0707 6.59863C47.9457 6.74316 47.7943 6.85645 47.6166 6.93848C47.4408 7.01855 47.2416 7.05859 47.0189 7.05859C46.7963 7.05859 46.5961 7.01855 46.4184 6.93848C46.2406 6.85645 46.0883 6.74316 45.9613 6.59863C45.8363 6.45215 45.7406 6.28125 45.6742 6.08594C45.6078 5.89062 45.5746 5.67871 45.5746 5.4502ZM46.1166 5.38281V5.4502C46.1166 5.6084 46.1352 5.75781 46.1723 5.89844C46.2094 6.03711 46.265 6.16016 46.3393 6.26758C46.4154 6.375 46.5102 6.45996 46.6234 6.52246C46.7367 6.58301 46.8686 6.61328 47.0189 6.61328C47.1674 6.61328 47.2973 6.58301 47.4086 6.52246C47.5219 6.45996 47.6156 6.375 47.6898 6.26758C47.7641 6.16016 47.8197 6.03711 47.8568 5.89844C47.8959 5.75781 47.9154 5.6084 47.9154 5.4502V5.38281C47.9154 5.22656 47.8959 5.0791 47.8568 4.94043C47.8197 4.7998 47.7631 4.67578 47.6869 4.56836C47.6127 4.45898 47.5189 4.37305 47.4057 4.31055C47.2943 4.24805 47.1635 4.2168 47.0131 4.2168C46.8646 4.2168 46.7338 4.24805 46.6205 4.31055C46.5092 4.37305 46.4154 4.45898 46.3393 4.56836C46.265 4.67578 46.2094 4.7998 46.1723 4.94043C46.1352 5.0791 46.1166 5.22656 46.1166 5.38281ZM50.7692 6.45801V4.82617C50.7692 4.70117 50.7438 4.59277 50.693 4.50098C50.6442 4.40723 50.57 4.33496 50.4704 4.28418C50.3707 4.2334 50.2477 4.20801 50.1012 4.20801C49.9645 4.20801 49.8444 4.23145 49.7409 4.27832C49.6393 4.3252 49.5592 4.38672 49.5006 4.46289C49.444 4.53906 49.4157 4.62109 49.4157 4.70898H48.8737C48.8737 4.5957 48.903 4.4834 48.9616 4.37207C49.0202 4.26074 49.1041 4.16016 49.2135 4.07031C49.3248 3.97852 49.4577 3.90625 49.612 3.85352C49.7682 3.79883 49.942 3.77148 50.1334 3.77148C50.3639 3.77148 50.567 3.81055 50.7428 3.88867C50.9205 3.9668 51.0592 4.08496 51.1588 4.24316C51.2604 4.39941 51.3112 4.5957 51.3112 4.83203V6.30859C51.3112 6.41406 51.32 6.52637 51.3375 6.64551C51.3571 6.76465 51.3854 6.86719 51.4225 6.95312V7H50.8571C50.8297 6.9375 50.8082 6.85449 50.7926 6.75098C50.777 6.64551 50.7692 6.54785 50.7692 6.45801ZM50.8629 5.07812L50.8688 5.45898H50.3209C50.1666 5.45898 50.0289 5.47168 49.9079 5.49707C49.7868 5.52051 49.6852 5.55664 49.6032 5.60547C49.5211 5.6543 49.4586 5.71582 49.4157 5.79004C49.3727 5.8623 49.3512 5.94727 49.3512 6.04492C49.3512 6.14453 49.3737 6.23535 49.4186 6.31738C49.4635 6.39941 49.5309 6.46484 49.6207 6.51367C49.7125 6.56055 49.8248 6.58398 49.9577 6.58398C50.1237 6.58398 50.2702 6.54883 50.3971 6.47852C50.5241 6.4082 50.6246 6.32227 50.6989 6.2207C50.775 6.11914 50.8161 6.02051 50.8219 5.9248L51.0534 6.18555C51.0397 6.26758 51.0026 6.3584 50.942 6.45801C50.8815 6.55762 50.8004 6.65332 50.6989 6.74512C50.5993 6.83496 50.4801 6.91016 50.3414 6.9707C50.2047 7.0293 50.0504 7.05859 49.8786 7.05859C49.6637 7.05859 49.4752 7.0166 49.3131 6.93262C49.153 6.84863 49.028 6.73633 48.9381 6.5957C48.8502 6.45312 48.8063 6.29395 48.8063 6.11816C48.8063 5.94824 48.8395 5.79883 48.9059 5.66992C48.9723 5.53906 49.068 5.43066 49.193 5.34473C49.318 5.25684 49.4684 5.19043 49.6442 5.14551C49.82 5.10059 50.0162 5.07812 50.233 5.07812H50.8629ZM53.9218 6.38477V2.5H54.4667V7H53.9686L53.9218 6.38477ZM51.7889 5.4502V5.38867C51.7889 5.14648 51.8182 4.92676 51.8768 4.72949C51.9374 4.53027 52.0223 4.35938 52.1317 4.2168C52.243 4.07422 52.3749 3.96484 52.5272 3.88867C52.6815 3.81055 52.8534 3.77148 53.0429 3.77148C53.2421 3.77148 53.4159 3.80664 53.5643 3.87695C53.7147 3.94531 53.8417 4.0459 53.9452 4.17871C54.0507 4.30957 54.1337 4.46777 54.1942 4.65332C54.2548 4.83887 54.2968 5.04883 54.3202 5.2832V5.55273C54.2987 5.78516 54.2567 5.99414 54.1942 6.17969C54.1337 6.36523 54.0507 6.52344 53.9452 6.6543C53.8417 6.78516 53.7147 6.88574 53.5643 6.95605C53.4139 7.02441 53.2382 7.05859 53.037 7.05859C52.8514 7.05859 52.6815 7.01855 52.5272 6.93848C52.3749 6.8584 52.243 6.74609 52.1317 6.60156C52.0223 6.45703 51.9374 6.28711 51.8768 6.0918C51.8182 5.89453 51.7889 5.68066 51.7889 5.4502ZM52.3339 5.38867V5.4502C52.3339 5.6084 52.3495 5.75684 52.3807 5.89551C52.4139 6.03418 52.4647 6.15625 52.5331 6.26172C52.6014 6.36719 52.6884 6.4502 52.7938 6.51074C52.8993 6.56934 53.0253 6.59863 53.1718 6.59863C53.3514 6.59863 53.4989 6.56055 53.6141 6.48438C53.7313 6.4082 53.8251 6.30762 53.8954 6.18262C53.9657 6.05762 54.0204 5.92188 54.0595 5.77539V5.06934C54.036 4.96191 54.0018 4.8584 53.9569 4.75879C53.9139 4.65723 53.8573 4.56738 53.787 4.48926C53.7186 4.40918 53.6337 4.3457 53.5321 4.29883C53.4325 4.25195 53.3143 4.22852 53.1776 4.22852C53.0292 4.22852 52.9012 4.25977 52.7938 4.32227C52.6884 4.38281 52.6014 4.4668 52.5331 4.57422C52.4647 4.67969 52.4139 4.80273 52.3807 4.94336C52.3495 5.08203 52.3339 5.23047 52.3339 5.38867ZM56.1752 5.4502V5.38281C56.1752 5.1543 56.2084 4.94238 56.2748 4.74707C56.3412 4.5498 56.4369 4.37891 56.5619 4.23438C56.6869 4.08789 56.8382 3.97461 57.016 3.89453C57.1937 3.8125 57.3929 3.77148 57.6136 3.77148C57.8363 3.77148 58.0365 3.8125 58.2142 3.89453C58.3939 3.97461 58.5462 4.08789 58.6712 4.23438C58.7982 4.37891 58.8949 4.5498 58.9613 4.74707C59.0277 4.94238 59.0609 5.1543 59.0609 5.38281V5.4502C59.0609 5.67871 59.0277 5.89062 58.9613 6.08594C58.8949 6.28125 58.7982 6.45215 58.6712 6.59863C58.5462 6.74316 58.3949 6.85645 58.2171 6.93848C58.0414 7.01855 57.8421 7.05859 57.6195 7.05859C57.3968 7.05859 57.1966 7.01855 57.0189 6.93848C56.8412 6.85645 56.6888 6.74316 56.5619 6.59863C56.4369 6.45215 56.3412 6.28125 56.2748 6.08594C56.2084 5.89062 56.1752 5.67871 56.1752 5.4502ZM56.7171 5.38281V5.4502C56.7171 5.6084 56.7357 5.75781 56.7728 5.89844C56.8099 6.03711 56.8656 6.16016 56.9398 6.26758C57.016 6.375 57.1107 6.45996 57.224 6.52246C57.3373 6.58301 57.4691 6.61328 57.6195 6.61328C57.7679 6.61328 57.8978 6.58301 58.0091 6.52246C58.1224 6.45996 58.2162 6.375 58.2904 6.26758C58.3646 6.16016 58.4203 6.03711 58.4574 5.89844C58.4964 5.75781 58.516 5.6084 58.516 5.4502V5.38281C58.516 5.22656 58.4964 5.0791 58.4574 4.94043C58.4203 4.7998 58.3636 4.67578 58.2875 4.56836C58.2132 4.45898 58.1195 4.37305 58.0062 4.31055C57.8949 4.24805 57.764 4.2168 57.6136 4.2168C57.4652 4.2168 57.3343 4.24805 57.2211 4.31055C57.1097 4.37305 57.016 4.45898 56.9398 4.56836C56.8656 4.67578 56.8099 4.7998 56.7728 4.94043C56.7357 5.0791 56.7171 5.22656 56.7171 5.38281ZM60.0426 4.50684V7H59.5006V3.83008H60.0133L60.0426 4.50684ZM59.9137 5.29492L59.6881 5.28613C59.69 5.06934 59.7223 4.86914 59.7848 4.68555C59.8473 4.5 59.9352 4.33887 60.0484 4.20215C60.1617 4.06543 60.2965 3.95996 60.4527 3.88574C60.6109 3.80957 60.7857 3.77148 60.9771 3.77148C61.1334 3.77148 61.274 3.79297 61.399 3.83594C61.524 3.87695 61.6305 3.94336 61.7184 4.03516C61.8082 4.12695 61.8766 4.24609 61.9234 4.39258C61.9703 4.53711 61.9937 4.71387 61.9937 4.92285V7H61.4488V4.91699C61.4488 4.75098 61.4244 4.61816 61.3756 4.51855C61.3268 4.41699 61.2555 4.34375 61.1617 4.29883C61.068 4.25195 60.9527 4.22852 60.816 4.22852C60.6812 4.22852 60.5582 4.25684 60.4469 4.31348C60.3375 4.37012 60.2428 4.44824 60.1627 4.54785C60.0846 4.64746 60.023 4.76172 59.9781 4.89062C59.9352 5.01758 59.9137 5.15234 59.9137 5.29492ZM65.1524 3.83008V4.24609H63.4386V3.83008H65.1524ZM64.0186 3.05957H64.5606V6.21484C64.5606 6.32227 64.5772 6.40332 64.6104 6.45801C64.6436 6.5127 64.6866 6.54883 64.7393 6.56641C64.7921 6.58398 64.8487 6.59277 64.9093 6.59277C64.9542 6.59277 65.0011 6.58887 65.0499 6.58105C65.1007 6.57129 65.1387 6.56348 65.1641 6.55762L65.1671 7C65.1241 7.01367 65.0675 7.02637 64.9971 7.03809C64.9288 7.05176 64.8458 7.05859 64.7481 7.05859C64.6153 7.05859 64.4932 7.03223 64.3819 6.97949C64.2706 6.92676 64.1817 6.83887 64.1153 6.71582C64.0509 6.59082 64.0186 6.42285 64.0186 6.21191V3.05957ZM66.0902 2.5V7H65.5482V2.5H66.0902ZM65.9613 5.29492L65.7357 5.28613C65.7376 5.06934 65.7698 4.86914 65.8323 4.68555C65.8948 4.5 65.9827 4.33887 66.096 4.20215C66.2093 4.06543 66.3441 3.95996 66.5003 3.88574C66.6585 3.80957 66.8333 3.77148 67.0247 3.77148C67.181 3.77148 67.3216 3.79297 67.4466 3.83594C67.5716 3.87695 67.678 3.94336 67.7659 4.03516C67.8558 4.12695 67.9241 4.24609 67.971 4.39258C68.0179 4.53711 68.0413 4.71387 68.0413 4.92285V7H67.4964V4.91699C67.4964 4.75098 67.472 4.61816 67.4232 4.51855C67.3743 4.41699 67.303 4.34375 67.2093 4.29883C67.1155 4.25195 67.0003 4.22852 66.8636 4.22852C66.7288 4.22852 66.6058 4.25684 66.4945 4.31348C66.3851 4.37012 66.2904 4.44824 66.2103 4.54785C66.1321 4.64746 66.0706 4.76172 66.0257 4.89062C65.9827 5.01758 65.9613 5.15234 65.9613 5.29492ZM69.9283 7.05859C69.7076 7.05859 69.5074 7.02148 69.3277 6.94727C69.15 6.87109 68.9966 6.76465 68.8677 6.62793C68.7408 6.49121 68.6431 6.3291 68.5748 6.1416C68.5064 5.9541 68.4722 5.74902 68.4722 5.52637V5.40332C68.4722 5.14551 68.5103 4.91602 68.5865 4.71484C68.6627 4.51172 68.7662 4.33984 68.897 4.19922C69.0279 4.05859 69.1763 3.95215 69.3423 3.87988C69.5084 3.80762 69.6802 3.77148 69.858 3.77148C70.0845 3.77148 70.2798 3.81055 70.4439 3.88867C70.6099 3.9668 70.7457 4.07617 70.8511 4.2168C70.9566 4.35547 71.0347 4.51953 71.0855 4.70898C71.1363 4.89648 71.1617 5.10156 71.1617 5.32422V5.56738H68.7945V5.125H70.6197V5.08398C70.6119 4.94336 70.5826 4.80664 70.5318 4.67383C70.483 4.54102 70.4048 4.43164 70.2974 4.3457C70.19 4.25977 70.0435 4.2168 69.858 4.2168C69.7349 4.2168 69.6216 4.24316 69.5181 4.2959C69.4146 4.34668 69.3257 4.42285 69.2515 4.52441C69.1773 4.62598 69.1197 4.75 69.0787 4.89648C69.0377 5.04297 69.0171 5.21191 69.0171 5.40332V5.52637C69.0171 5.67676 69.0377 5.81836 69.0787 5.95117C69.1216 6.08203 69.1832 6.19727 69.2632 6.29688C69.3453 6.39648 69.4439 6.47461 69.5591 6.53125C69.6763 6.58789 69.8091 6.61621 69.9576 6.61621C70.149 6.61621 70.3111 6.57715 70.4439 6.49902C70.5767 6.4209 70.6929 6.31641 70.7925 6.18555L71.1207 6.44629C71.0523 6.5498 70.9654 6.64844 70.8599 6.74219C70.7545 6.83594 70.6246 6.91211 70.4703 6.9707C70.3179 7.0293 70.1373 7.05859 69.9283 7.05859Z" fill="#F7F5F5"/>
<path d="M34.53 15.9287L31.2351 25H29.8884L33.6824 15.0469H34.5505L34.53 15.9287ZM37.2918 25L33.99 15.9287L33.9695 15.0469H34.8377L38.6453 25H37.2918ZM37.1209 21.3154V22.3955H31.5291V21.3154H37.1209ZM40.4915 19.0254V27.8438H39.22V17.6035H40.3821L40.4915 19.0254ZM45.4749 21.2402V21.3838C45.4749 21.9215 45.4111 22.4206 45.2835 22.8809C45.1559 23.3366 44.9691 23.7331 44.723 24.0703C44.4814 24.4076 44.1829 24.6696 43.8275 24.8564C43.472 25.0433 43.0641 25.1367 42.6038 25.1367C42.1344 25.1367 41.7197 25.0592 41.3597 24.9043C40.9997 24.7493 40.6943 24.5238 40.4437 24.2275C40.193 23.9313 39.9925 23.5758 39.8421 23.1611C39.6963 22.7464 39.596 22.2793 39.5413 21.7598V20.9941C39.596 20.4473 39.6986 19.9574 39.8489 19.5244C39.9993 19.0915 40.1976 18.7223 40.4437 18.417C40.6943 18.1071 40.9974 17.8724 41.3529 17.7129C41.7083 17.5488 42.1185 17.4668 42.5833 17.4668C43.0482 17.4668 43.4606 17.5579 43.8206 17.7402C44.1807 17.918 44.4837 18.1732 44.7298 18.5059C44.9759 18.8385 45.1605 19.2373 45.2835 19.7021C45.4111 20.1624 45.4749 20.6751 45.4749 21.2402ZM44.2034 21.3838V21.2402C44.2034 20.8711 44.1647 20.5247 44.0872 20.2012C44.0098 19.873 43.889 19.5859 43.7249 19.3398C43.5654 19.0892 43.3603 18.8932 43.1097 18.752C42.859 18.6061 42.5605 18.5332 42.2142 18.5332C41.8952 18.5332 41.6172 18.5879 41.3802 18.6973C41.1478 18.8066 40.9495 18.9548 40.7855 19.1416C40.6214 19.3239 40.487 19.5335 40.3821 19.7705C40.2819 20.0029 40.2067 20.2445 40.1566 20.4951V22.2656C40.2477 22.5846 40.3753 22.8854 40.5394 23.168C40.7034 23.446 40.9222 23.6715 41.1956 23.8447C41.4691 24.0133 41.8131 24.0977 42.2279 24.0977C42.5696 24.0977 42.8636 24.027 43.1097 23.8857C43.3603 23.7399 43.5654 23.5417 43.7249 23.291C43.889 23.0404 44.0098 22.7533 44.0872 22.4297C44.1647 22.1016 44.2034 21.7529 44.2034 21.3838ZM47.7929 19.0254V27.8438H46.5214V17.6035H47.6835L47.7929 19.0254ZM52.7762 21.2402V21.3838C52.7762 21.9215 52.7124 22.4206 52.5848 22.8809C52.4572 23.3366 52.2704 23.7331 52.0243 24.0703C51.7828 24.4076 51.4843 24.6696 51.1288 24.8564C50.7733 25.0433 50.3654 25.1367 49.9052 25.1367C49.4358 25.1367 49.021 25.0592 48.661 24.9043C48.301 24.7493 47.9956 24.5238 47.745 24.2275C47.4943 23.9313 47.2938 23.5758 47.1434 23.1611C46.9976 22.7464 46.8973 22.2793 46.8427 21.7598V20.9941C46.8973 20.4473 46.9999 19.9574 47.1503 19.5244C47.3007 19.0915 47.4989 18.7223 47.745 18.417C47.9956 18.1071 48.2987 17.8724 48.6542 17.7129C49.0096 17.5488 49.4198 17.4668 49.8846 17.4668C50.3495 17.4668 50.7619 17.5579 51.122 17.7402C51.482 17.918 51.785 18.1732 52.0311 18.5059C52.2772 18.8385 52.4618 19.2373 52.5848 19.7021C52.7124 20.1624 52.7762 20.6751 52.7762 21.2402ZM51.5048 21.3838V21.2402C51.5048 20.8711 51.466 20.5247 51.3886 20.2012C51.3111 19.873 51.1903 19.5859 51.0262 19.3398C50.8667 19.0892 50.6617 18.8932 50.411 18.752C50.1604 18.6061 49.8619 18.5332 49.5155 18.5332C49.1965 18.5332 48.9185 18.5879 48.6815 18.6973C48.4491 18.8066 48.2509 18.9548 48.0868 19.1416C47.9227 19.3239 47.7883 19.5335 47.6835 19.7705C47.5832 20.0029 47.508 20.2445 47.4579 20.4951V22.2656C47.549 22.5846 47.6766 22.8854 47.8407 23.168C48.0048 23.446 48.2235 23.6715 48.497 23.8447C48.7704 24.0133 49.1145 24.0977 49.5292 24.0977C49.871 24.0977 50.1649 24.027 50.411 23.8857C50.6617 23.7399 50.8667 23.5417 51.0262 23.291C51.1903 23.0404 51.3111 22.7533 51.3886 22.4297C51.466 22.1016 51.5048 21.7529 51.5048 21.3838ZM62.2383 22.4844C62.2383 22.252 62.2018 22.0469 62.1289 21.8691C62.0605 21.6868 61.9375 21.5228 61.7598 21.377C61.5866 21.2311 61.3451 21.0921 61.0352 20.96C60.7298 20.8278 60.3424 20.6934 59.873 20.5566C59.3809 20.4108 58.9365 20.249 58.54 20.0713C58.1436 19.889 57.804 19.6816 57.5215 19.4492C57.2389 19.2168 57.0225 18.9502 56.8721 18.6494C56.7217 18.3486 56.6465 18.0046 56.6465 17.6172C56.6465 17.2298 56.7262 16.8721 56.8857 16.5439C57.0452 16.2158 57.2731 15.931 57.5693 15.6895C57.8701 15.4434 58.2279 15.252 58.6426 15.1152C59.0573 14.9785 59.5199 14.9102 60.0303 14.9102C60.7777 14.9102 61.4111 15.0537 61.9307 15.3408C62.4548 15.6234 62.8535 15.9948 63.127 16.4551C63.4004 16.9108 63.5371 17.3984 63.5371 17.918H62.2246C62.2246 17.5443 62.1449 17.2139 61.9854 16.9268C61.8258 16.6351 61.5843 16.4072 61.2607 16.2432C60.9372 16.0745 60.527 15.9902 60.0303 15.9902C59.5609 15.9902 59.1735 16.0609 58.8682 16.2021C58.5628 16.3434 58.335 16.5348 58.1846 16.7764C58.0387 17.0179 57.9658 17.2936 57.9658 17.6035C57.9658 17.8132 58.0091 18.0046 58.0957 18.1777C58.1868 18.3464 58.3258 18.5036 58.5127 18.6494C58.7041 18.7952 58.9456 18.9297 59.2373 19.0527C59.5335 19.1758 59.8867 19.2943 60.2969 19.4082C60.862 19.5677 61.3496 19.7454 61.7598 19.9414C62.1699 20.1374 62.5072 20.3584 62.7715 20.6045C63.0404 20.846 63.2386 21.1217 63.3662 21.4316C63.4984 21.737 63.5645 22.0833 63.5645 22.4707C63.5645 22.8763 63.4824 23.2432 63.3184 23.5713C63.1543 23.8994 62.9196 24.1797 62.6143 24.4121C62.3089 24.6445 61.9421 24.8245 61.5137 24.9521C61.0898 25.0752 60.6159 25.1367 60.0918 25.1367C59.6315 25.1367 59.1781 25.0729 58.7314 24.9453C58.2894 24.8177 57.8861 24.6263 57.5215 24.3711C57.1615 24.1159 56.8721 23.8014 56.6533 23.4277C56.4391 23.0495 56.332 22.612 56.332 22.1152H57.6445C57.6445 22.457 57.7106 22.751 57.8428 22.9971C57.9749 23.2386 58.1549 23.4391 58.3828 23.5986C58.6152 23.7581 58.8773 23.8766 59.1689 23.9541C59.4652 24.027 59.7728 24.0635 60.0918 24.0635C60.5521 24.0635 60.9417 23.9997 61.2607 23.8721C61.5798 23.7445 61.8213 23.5622 61.9854 23.3252C62.154 23.0882 62.2383 22.8079 62.2383 22.4844ZM67.5914 17.6035V18.5742H63.5923V17.6035H67.5914ZM64.9459 15.8057H66.2105V23.168C66.2105 23.4186 66.2492 23.6077 66.3267 23.7354C66.4042 23.863 66.5045 23.9473 66.6275 23.9883C66.7505 24.0293 66.8827 24.0498 67.024 24.0498C67.1288 24.0498 67.2382 24.0407 67.3521 24.0225C67.4706 23.9997 67.5595 23.9814 67.6187 23.9678L67.6255 25C67.5253 25.0319 67.3931 25.0615 67.2291 25.0889C67.0696 25.1208 66.8759 25.1367 66.648 25.1367C66.3381 25.1367 66.0533 25.0752 65.7935 24.9521C65.5338 24.8291 65.3264 24.624 65.1714 24.3369C65.0211 24.0452 64.9459 23.6533 64.9459 23.1611V15.8057ZM68.0431 21.3838V21.2266C68.0431 20.6934 68.1206 20.1989 68.2755 19.7432C68.4305 19.2829 68.6538 18.8841 68.9454 18.5469C69.2371 18.2051 69.5903 17.9408 70.005 17.7539C70.4197 17.5625 70.8846 17.4668 71.3995 17.4668C71.9191 17.4668 72.3862 17.5625 72.8009 17.7539C73.2202 17.9408 73.5756 18.2051 73.8673 18.5469C74.1635 18.8841 74.3891 19.2829 74.5441 19.7432C74.699 20.1989 74.7765 20.6934 74.7765 21.2266V21.3838C74.7765 21.917 74.699 22.4115 74.5441 22.8672C74.3891 23.3229 74.1635 23.7217 73.8673 24.0635C73.5756 24.4007 73.2224 24.665 72.8077 24.8564C72.3976 25.0433 71.9327 25.1367 71.4132 25.1367C70.8937 25.1367 70.4265 25.0433 70.0118 24.8564C69.5971 24.665 69.2417 24.4007 68.9454 24.0635C68.6538 23.7217 68.4305 23.3229 68.2755 22.8672C68.1206 22.4115 68.0431 21.917 68.0431 21.3838ZM69.3077 21.2266V21.3838C69.3077 21.7529 69.351 22.1016 69.4376 22.4297C69.5242 22.7533 69.6541 23.0404 69.8273 23.291C70.005 23.5417 70.226 23.7399 70.4903 23.8857C70.7547 24.027 71.0623 24.0977 71.4132 24.0977C71.7596 24.0977 72.0626 24.027 72.3224 23.8857C72.5867 23.7399 72.8055 23.5417 72.9786 23.291C73.1518 23.0404 73.2817 22.7533 73.3683 22.4297C73.4594 22.1016 73.505 21.7529 73.505 21.3838V21.2266C73.505 20.862 73.4594 20.5179 73.3683 20.1943C73.2817 19.8662 73.1495 19.5768 72.9718 19.3262C72.7986 19.071 72.5799 18.8704 72.3155 18.7246C72.0558 18.5788 71.7504 18.5059 71.3995 18.5059C71.0532 18.5059 70.7478 18.5788 70.4835 18.7246C70.2237 18.8704 70.005 19.071 69.8273 19.3262C69.6541 19.5768 69.5242 19.8662 69.4376 20.1943C69.351 20.5179 69.3077 20.862 69.3077 21.2266ZM77.0671 18.7656V25H75.8024V17.6035H77.0329L77.0671 18.7656ZM79.3776 17.5625L79.3708 18.7383C79.266 18.7155 79.1657 18.7018 79.07 18.6973C78.9789 18.6882 78.874 18.6836 78.7555 18.6836C78.4639 18.6836 78.2064 18.7292 77.9831 18.8203C77.7598 18.9115 77.5707 19.0391 77.4157 19.2031C77.2608 19.3672 77.1377 19.5632 77.0466 19.791C76.96 20.0143 76.903 20.2604 76.8757 20.5293L76.5202 20.7344C76.5202 20.2878 76.5635 19.8685 76.6501 19.4766C76.7412 19.0846 76.8802 18.7383 77.0671 18.4375C77.2539 18.1322 77.4909 17.8952 77.778 17.7266C78.0697 17.5534 78.416 17.4668 78.8171 17.4668C78.9082 17.4668 79.013 17.4782 79.1315 17.501C79.25 17.5192 79.332 17.5397 79.3776 17.5625ZM82.9192 25.1367C82.4042 25.1367 81.9371 25.0501 81.5178 24.877C81.1031 24.6992 80.7454 24.4508 80.4446 24.1318C80.1483 23.8128 79.9205 23.4346 79.761 22.9971C79.6015 22.5596 79.5217 22.0811 79.5217 21.5615V21.2744C79.5217 20.6729 79.6106 20.1374 79.7883 19.668C79.9661 19.194 80.2076 18.793 80.5129 18.4648C80.8183 18.1367 81.1646 17.8883 81.552 17.7197C81.9394 17.5511 82.3404 17.4668 82.7551 17.4668C83.2838 17.4668 83.7395 17.5579 84.1223 17.7402C84.5097 17.9225 84.8264 18.1777 85.0725 18.5059C85.3186 18.8294 85.5009 19.2122 85.6194 19.6543C85.7379 20.0918 85.7971 20.5703 85.7971 21.0898V21.6572H80.2737V20.625H84.5325V20.5293C84.5142 20.2012 84.4459 19.8822 84.3274 19.5723C84.2135 19.2624 84.0312 19.0072 83.7805 18.8066C83.5299 18.6061 83.1881 18.5059 82.7551 18.5059C82.468 18.5059 82.2037 18.5674 81.9622 18.6904C81.7206 18.8089 81.5133 18.9867 81.3401 19.2236C81.1669 19.4606 81.0325 19.75 80.9368 20.0918C80.8411 20.4336 80.7932 20.8278 80.7932 21.2744V21.5615C80.7932 21.9124 80.8411 22.2428 80.9368 22.5527C81.037 22.8581 81.1806 23.127 81.3674 23.3594C81.5588 23.5918 81.789 23.7741 82.0579 23.9062C82.3313 24.0384 82.6412 24.1045 82.9875 24.1045C83.4342 24.1045 83.8124 24.0133 84.1223 23.8311C84.4322 23.6488 84.7034 23.4049 84.9358 23.0996L85.7014 23.708C85.5419 23.9495 85.3391 24.1797 85.093 24.3984C84.8469 24.6172 84.5439 24.7949 84.1838 24.9316C83.8284 25.0684 83.4068 25.1367 82.9192 25.1367Z" fill="#F7F5F5"/>
</svg>
