<svg width="107" height="30" viewBox="0 0 107 30" fill="none" xmlns="http://www.w3.org/2000/svg">
<rect width="107" height="30" fill="#121212"/>
<g clip-path="url(#clip0_10_410)">
<path d="M13.0381 14.6743L6.55798 20.8158C6.63075 21.049 6.76153 21.2642 6.9403 21.4448C7.11908 21.6253 7.34112 21.7665 7.58947 21.8575C7.83781 21.9486 8.10587 21.987 8.37317 21.97C8.64047 21.953 8.89992 21.8809 9.13169 21.7592L16.423 18.0028L13.0381 14.6743Z" fill="#EA4335"/>
<path d="M19.5905 13.6303L16.4375 11.9966L12.8884 14.8139L16.452 17.9938L19.581 16.3776C19.8582 16.2463 20.0903 16.0489 20.2523 15.8068C20.4143 15.5646 20.5 15.287 20.5 15.0039C20.5 14.7209 20.4143 14.4433 20.2523 14.2011C20.0903 13.9589 19.8582 13.7615 19.581 13.6302L19.5905 13.6303Z" fill="#FBBC04"/>
<path d="M6.55796 9.16211C6.51879 9.2931 6.49929 9.42826 6.49999 9.56395V20.4141C6.50039 20.5497 6.51987 20.6847 6.55796 20.8159L13.2602 14.8318L6.55796 9.16211Z" fill="#4285F4"/>
<path d="M13.0864 14.9888L16.4375 11.9967L9.15586 8.22277C8.88189 8.07762 8.5703 8.00076 8.2528 8C7.46492 7.99862 6.77225 8.47165 6.55798 9.15755L13.0864 14.9888Z" fill="#34A853"/>
</g>
<path d="M28.9291 5.1123L27.517 9H26.9399L28.5659 4.73438H28.9379L28.9291 5.1123ZM30.1127 9L28.6977 5.1123L28.6889 4.73438H29.061L30.6928 9H30.1127ZM30.0395 7.4209V7.88379H27.643V7.4209H30.0395ZM34.3054 4.73438V9H33.737L31.5895 5.70996V9H31.0241V4.73438H31.5895L33.7458 8.0332V4.73438H34.3054ZM36.2216 9H35.331L35.3368 8.54004H36.2216C36.5263 8.54004 36.7802 8.47656 36.9833 8.34961C37.1864 8.2207 37.3388 8.04102 37.4404 7.81055C37.5439 7.57812 37.5956 7.30664 37.5956 6.99609V6.73535C37.5956 6.49121 37.5663 6.27441 37.5077 6.08496C37.4491 5.89355 37.3632 5.73242 37.2499 5.60156C37.1366 5.46875 36.998 5.36816 36.8339 5.2998C36.6718 5.23145 36.4853 5.19727 36.2743 5.19727H35.3134V4.73438H36.2743C36.5536 4.73438 36.8085 4.78125 37.039 4.875C37.2695 4.9668 37.4677 5.10059 37.6337 5.27637C37.8017 5.4502 37.9306 5.66113 38.0204 5.90918C38.1103 6.15527 38.1552 6.43262 38.1552 6.74121V6.99609C38.1552 7.30469 38.1103 7.58301 38.0204 7.83105C37.9306 8.07715 37.8007 8.28711 37.6308 8.46094C37.4628 8.63477 37.2597 8.76855 37.0214 8.8623C36.7851 8.9541 36.5185 9 36.2216 9ZM35.6327 4.73438V9H35.0673V4.73438H35.6327ZM38.7648 4.73438H40.1769C40.4972 4.73438 40.7677 4.7832 40.9884 4.88086C41.2111 4.97852 41.38 5.12305 41.4953 5.31445C41.6125 5.50391 41.6711 5.7373 41.6711 6.01465C41.6711 6.20996 41.631 6.38867 41.5509 6.55078C41.4728 6.71094 41.3595 6.84766 41.2111 6.96094C41.0646 7.07227 40.8888 7.15527 40.6837 7.20996L40.5255 7.27148H39.1984L39.1925 6.81152H40.1945C40.3976 6.81152 40.5666 6.77637 40.7013 6.70605C40.8361 6.63379 40.9377 6.53711 41.006 6.41602C41.0744 6.29492 41.1086 6.16113 41.1086 6.01465C41.1086 5.85059 41.0763 5.70703 41.0119 5.58398C40.9474 5.46094 40.8459 5.36621 40.7072 5.2998C40.5705 5.23145 40.3937 5.19727 40.1769 5.19727H39.3302V9H38.7648V4.73438ZM41.258 9L40.2209 7.06641L40.8097 7.06348L41.8615 8.96484V9H41.258ZM45.5062 6.73242V7.00195C45.5062 7.32227 45.4662 7.60938 45.3861 7.86328C45.3061 8.11719 45.1908 8.33301 45.0404 8.51074C44.89 8.68848 44.7094 8.82422 44.4984 8.91797C44.2895 9.01172 44.0551 9.05859 43.7953 9.05859C43.5434 9.05859 43.3119 9.01172 43.101 8.91797C42.892 8.82422 42.7104 8.68848 42.5561 8.51074C42.4037 8.33301 42.2855 8.11719 42.2016 7.86328C42.1176 7.60938 42.0756 7.32227 42.0756 7.00195V6.73242C42.0756 6.41211 42.1166 6.12598 42.1986 5.87402C42.2826 5.62012 42.4008 5.4043 42.5531 5.22656C42.7055 5.04688 42.8861 4.91016 43.0951 4.81641C43.3061 4.72266 43.5375 4.67578 43.7895 4.67578C44.0492 4.67578 44.2836 4.72266 44.4926 4.81641C44.7035 4.91016 44.8842 5.04688 45.0346 5.22656C45.1869 5.4043 45.3031 5.62012 45.3832 5.87402C45.4652 6.12598 45.5062 6.41211 45.5062 6.73242ZM44.9467 7.00195V6.72656C44.9467 6.47266 44.9203 6.24805 44.8676 6.05273C44.8168 5.85742 44.7416 5.69336 44.642 5.56055C44.5424 5.42773 44.4203 5.32715 44.2758 5.25879C44.1332 5.19043 43.9711 5.15625 43.7895 5.15625C43.6137 5.15625 43.4545 5.19043 43.3119 5.25879C43.1713 5.32715 43.0502 5.42773 42.9486 5.56055C42.849 5.69336 42.7719 5.85742 42.7172 6.05273C42.6625 6.24805 42.6352 6.47266 42.6352 6.72656V7.00195C42.6352 7.25781 42.6625 7.48438 42.7172 7.68164C42.7719 7.87695 42.85 8.04199 42.9516 8.17676C43.0551 8.30957 43.1771 8.41016 43.3178 8.47852C43.4604 8.54688 43.6195 8.58105 43.7953 8.58105C43.9789 8.58105 44.142 8.54688 44.2846 8.47852C44.4271 8.41016 44.5473 8.30957 44.6449 8.17676C44.7445 8.04199 44.8197 7.87695 44.8705 7.68164C44.9213 7.48438 44.9467 7.25781 44.9467 7.00195ZM46.7194 4.73438V9H46.1539V4.73438H46.7194ZM48.662 9H47.7714L47.7772 8.54004H48.662C48.9667 8.54004 49.2206 8.47656 49.4237 8.34961C49.6268 8.2207 49.7792 8.04102 49.8807 7.81055C49.9843 7.57812 50.036 7.30664 50.036 6.99609V6.73535C50.036 6.49121 50.0067 6.27441 49.9481 6.08496C49.8895 5.89355 49.8036 5.73242 49.6903 5.60156C49.577 5.46875 49.4384 5.36816 49.2743 5.2998C49.1122 5.23145 48.9257 5.19727 48.7147 5.19727H47.7538V4.73438H48.7147C48.994 4.73438 49.2489 4.78125 49.4794 4.875C49.7098 4.9668 49.9081 5.10059 50.0741 5.27637C50.2421 5.4502 50.371 5.66113 50.4608 5.90918C50.5507 6.15527 50.5956 6.43262 50.5956 6.74121V6.99609C50.5956 7.30469 50.5507 7.58301 50.4608 7.83105C50.371 8.07715 50.2411 8.28711 50.0712 8.46094C49.9032 8.63477 49.7001 8.76855 49.4618 8.8623C49.2255 8.9541 48.9589 9 48.662 9ZM48.0731 4.73438V9H47.5077V4.73438H48.0731ZM54.0326 5.1123L52.6205 9H52.0433L53.6693 4.73438H54.0414L54.0326 5.1123ZM55.2162 9L53.8011 5.1123L53.7923 4.73438H54.1644L55.7962 9H55.2162ZM55.1429 7.4209V7.88379H52.7464V7.4209H55.1429ZM57.7008 7.32715H56.5611V6.86719H57.7008C57.9215 6.86719 58.1002 6.83203 58.2369 6.76172C58.3736 6.69141 58.4732 6.59375 58.5357 6.46875C58.6002 6.34375 58.6324 6.20117 58.6324 6.04102C58.6324 5.89453 58.6002 5.75684 58.5357 5.62793C58.4732 5.49902 58.3736 5.39551 58.2369 5.31738C58.1002 5.2373 57.9215 5.19727 57.7008 5.19727H56.693V9H56.1275V4.73438H57.7008C58.023 4.73438 58.2955 4.79004 58.5182 4.90137C58.7408 5.0127 58.9098 5.16699 59.025 5.36426C59.1402 5.55957 59.1979 5.7832 59.1979 6.03516C59.1979 6.30859 59.1402 6.54199 59.025 6.73535C58.9098 6.92871 58.7408 7.07617 58.5182 7.17773C58.2955 7.27734 58.023 7.32715 57.7008 7.32715ZM61.2459 7.32715H60.1063V6.86719H61.2459C61.4666 6.86719 61.6453 6.83203 61.7821 6.76172C61.9188 6.69141 62.0184 6.59375 62.0809 6.46875C62.1453 6.34375 62.1776 6.20117 62.1776 6.04102C62.1776 5.89453 62.1453 5.75684 62.0809 5.62793C62.0184 5.49902 61.9188 5.39551 61.7821 5.31738C61.6453 5.2373 61.4666 5.19727 61.2459 5.19727H60.2381V9H59.6727V4.73438H61.2459C61.5682 4.73438 61.8407 4.79004 62.0633 4.90137C62.286 5.0127 62.4549 5.16699 62.5702 5.36426C62.6854 5.55957 62.743 5.7832 62.743 6.03516C62.743 6.30859 62.6854 6.54199 62.5702 6.73535C62.4549 6.92871 62.286 7.07617 62.0633 7.17773C61.8407 7.27734 61.5682 7.32715 61.2459 7.32715ZM67.7503 6.73242V7.00195C67.7503 7.32227 67.7103 7.60938 67.6302 7.86328C67.5501 8.11719 67.4349 8.33301 67.2845 8.51074C67.1341 8.68848 66.9534 8.82422 66.7425 8.91797C66.5335 9.01172 66.2991 9.05859 66.0394 9.05859C65.7874 9.05859 65.556 9.01172 65.345 8.91797C65.1361 8.82422 64.9544 8.68848 64.8001 8.51074C64.6478 8.33301 64.5296 8.11719 64.4456 7.86328C64.3616 7.60938 64.3196 7.32227 64.3196 7.00195V6.73242C64.3196 6.41211 64.3607 6.12598 64.4427 5.87402C64.5267 5.62012 64.6448 5.4043 64.7972 5.22656C64.9495 5.04688 65.1302 4.91016 65.3392 4.81641C65.5501 4.72266 65.7816 4.67578 66.0335 4.67578C66.2933 4.67578 66.5277 4.72266 66.7366 4.81641C66.9476 4.91016 67.1282 5.04688 67.2786 5.22656C67.431 5.4043 67.5472 5.62012 67.6273 5.87402C67.7093 6.12598 67.7503 6.41211 67.7503 6.73242ZM67.1907 7.00195V6.72656C67.1907 6.47266 67.1644 6.24805 67.1116 6.05273C67.0609 5.85742 66.9857 5.69336 66.8861 5.56055C66.7864 5.42773 66.6644 5.32715 66.5198 5.25879C66.3773 5.19043 66.2152 5.15625 66.0335 5.15625C65.8577 5.15625 65.6986 5.19043 65.556 5.25879C65.4154 5.32715 65.2943 5.42773 65.1927 5.56055C65.0931 5.69336 65.0159 5.85742 64.9613 6.05273C64.9066 6.24805 64.8792 6.47266 64.8792 6.72656V7.00195C64.8792 7.25781 64.9066 7.48438 64.9613 7.68164C65.0159 7.87695 65.0941 8.04199 65.1956 8.17676C65.2991 8.30957 65.4212 8.41016 65.5618 8.47852C65.7044 8.54688 65.8636 8.58105 66.0394 8.58105C66.223 8.58105 66.3861 8.54688 66.5286 8.47852C66.6712 8.41016 66.7913 8.30957 66.889 8.17676C66.9886 8.04199 67.0638 7.87695 67.1146 7.68164C67.1654 7.48438 67.1907 7.25781 67.1907 7.00195ZM71.6382 4.73438V9H71.0699L68.9224 5.70996V9H68.357V4.73438H68.9224L71.0787 8.0332V4.73438H71.6382Z" fill="#FFFCFC"/>
<path d="M35.2873 18.0439V21.6875C35.1643 21.8698 34.9683 22.0749 34.6994 22.3027C34.4305 22.526 34.0591 22.722 33.5852 22.8906C33.1158 23.0547 32.5096 23.1367 31.7668 23.1367C31.1607 23.1367 30.6024 23.0319 30.092 22.8223C29.5861 22.6081 29.1464 22.2982 28.7727 21.8926C28.4035 21.4824 28.1164 20.9857 27.9113 20.4023C27.7108 19.8145 27.6105 19.1491 27.6105 18.4062V17.6338C27.6105 16.891 27.6971 16.2279 27.8703 15.6445C28.048 15.0612 28.3078 14.5667 28.6496 14.1611C28.9914 13.751 29.4107 13.4411 29.9074 13.2314C30.4042 13.0173 30.9738 12.9102 31.6164 12.9102C32.3775 12.9102 33.0132 13.0423 33.5236 13.3066C34.0386 13.5664 34.4396 13.9264 34.7268 14.3867C35.0184 14.847 35.2053 15.3711 35.2873 15.959H33.968C33.9087 15.599 33.7902 15.2708 33.6125 14.9746C33.4393 14.6784 33.1909 14.4414 32.8674 14.2637C32.5438 14.0814 32.1268 13.9902 31.6164 13.9902C31.1561 13.9902 30.7574 14.0745 30.4201 14.2432C30.0829 14.4118 29.8049 14.6533 29.5861 14.9678C29.3674 15.2822 29.2033 15.6628 29.0939 16.1094C28.9891 16.556 28.9367 17.0596 28.9367 17.6201V18.4062C28.9367 18.9805 29.0028 19.4932 29.135 19.9443C29.2717 20.3955 29.4654 20.7806 29.716 21.0996C29.9667 21.4141 30.2652 21.6533 30.6115 21.8174C30.9624 21.9814 31.3498 22.0635 31.7736 22.0635C32.243 22.0635 32.6236 22.0247 32.9152 21.9473C33.2069 21.8652 33.4348 21.7695 33.5988 21.6602C33.7629 21.5462 33.8882 21.4391 33.9748 21.3389V19.1104H31.6711V18.0439H35.2873ZM36.3884 19.3838V19.2266C36.3884 18.6934 36.4659 18.1989 36.6209 17.7432C36.7758 17.2829 36.9991 16.8841 37.2908 16.5469C37.5824 16.2051 37.9356 15.9408 38.3504 15.7539C38.7651 15.5625 39.2299 15.4668 39.7449 15.4668C40.2644 15.4668 40.7315 15.5625 41.1462 15.7539C41.5655 15.9408 41.921 16.2051 42.2127 16.5469C42.5089 16.8841 42.7345 17.2829 42.8894 17.7432C43.0444 18.1989 43.1218 18.6934 43.1218 19.2266V19.3838C43.1218 19.917 43.0444 20.4115 42.8894 20.8672C42.7345 21.3229 42.5089 21.7217 42.2127 22.0635C41.921 22.4007 41.5678 22.665 41.1531 22.8564C40.7429 23.0433 40.2781 23.1367 39.7586 23.1367C39.239 23.1367 38.7719 23.0433 38.3572 22.8564C37.9425 22.665 37.587 22.4007 37.2908 22.0635C36.9991 21.7217 36.7758 21.3229 36.6209 20.8672C36.4659 20.4115 36.3884 19.917 36.3884 19.3838ZM37.6531 19.2266V19.3838C37.6531 19.7529 37.6964 20.1016 37.783 20.4297C37.8696 20.7533 37.9994 21.0404 38.1726 21.291C38.3504 21.5417 38.5714 21.7399 38.8357 21.8857C39.1 22.027 39.4076 22.0977 39.7586 22.0977C40.1049 22.0977 40.408 22.027 40.6677 21.8857C40.9321 21.7399 41.1508 21.5417 41.324 21.291C41.4972 21.0404 41.627 20.7533 41.7136 20.4297C41.8048 20.1016 41.8504 19.7529 41.8504 19.3838V19.2266C41.8504 18.862 41.8048 18.5179 41.7136 18.1943C41.627 17.8662 41.4949 17.5768 41.3171 17.3262C41.144 17.071 40.9252 16.8704 40.6609 16.7246C40.4011 16.5788 40.0958 16.5059 39.7449 16.5059C39.3985 16.5059 39.0932 16.5788 38.8289 16.7246C38.5691 16.8704 38.3504 17.071 38.1726 17.3262C37.9994 17.5768 37.8696 17.8662 37.783 18.1943C37.6964 18.5179 37.6531 18.862 37.6531 19.2266ZM43.8128 19.3838V19.2266C43.8128 18.6934 43.8903 18.1989 44.0452 17.7432C44.2002 17.2829 44.4235 16.8841 44.7152 16.5469C45.0068 16.2051 45.36 15.9408 45.7747 15.7539C46.1894 15.5625 46.6543 15.4668 47.1693 15.4668C47.6888 15.4668 48.1559 15.5625 48.5706 15.7539C48.9899 15.9408 49.3454 16.2051 49.637 16.5469C49.9333 16.8841 50.1588 17.2829 50.3138 17.7432C50.4687 18.1989 50.5462 18.6934 50.5462 19.2266V19.3838C50.5462 19.917 50.4687 20.4115 50.3138 20.8672C50.1588 21.3229 49.9333 21.7217 49.637 22.0635C49.3454 22.4007 48.9922 22.665 48.5775 22.8564C48.1673 23.0433 47.7025 23.1367 47.1829 23.1367C46.6634 23.1367 46.1963 23.0433 45.7816 22.8564C45.3668 22.665 45.0114 22.4007 44.7152 22.0635C44.4235 21.7217 44.2002 21.3229 44.0452 20.8672C43.8903 20.4115 43.8128 19.917 43.8128 19.3838ZM45.0775 19.2266V19.3838C45.0775 19.7529 45.1208 20.1016 45.2073 20.4297C45.2939 20.7533 45.4238 21.0404 45.597 21.291C45.7747 21.5417 45.9958 21.7399 46.2601 21.8857C46.5244 22.027 46.832 22.0977 47.1829 22.0977C47.5293 22.0977 47.8323 22.027 48.0921 21.8857C48.3564 21.7399 48.5752 21.5417 48.7484 21.291C48.9215 21.0404 49.0514 20.7533 49.138 20.4297C49.2292 20.1016 49.2747 19.7529 49.2747 19.3838V19.2266C49.2747 18.862 49.2292 18.5179 49.138 18.1943C49.0514 17.8662 48.9193 17.5768 48.7415 17.3262C48.5683 17.071 48.3496 16.8704 48.0853 16.7246C47.8255 16.5788 47.5202 16.5059 47.1693 16.5059C46.8229 16.5059 46.5176 16.5788 46.2532 16.7246C45.9935 16.8704 45.7747 17.071 45.597 17.3262C45.4238 17.5768 45.2939 17.8662 45.2073 18.1943C45.1208 18.5179 45.0775 18.862 45.0775 19.2266ZM56.3641 15.6035H57.5126V22.8428C57.5126 23.4945 57.3804 24.0505 57.1161 24.5107C56.8518 24.971 56.4826 25.3197 56.0087 25.5566C55.5393 25.7982 54.997 25.9189 54.3817 25.9189C54.1265 25.9189 53.8257 25.8779 53.4794 25.7959C53.1376 25.7184 52.8003 25.584 52.4677 25.3926C52.1395 25.2057 51.8638 24.9528 51.6405 24.6338L52.3036 23.8818C52.6135 24.2555 52.9371 24.5153 53.2743 24.6611C53.6161 24.807 53.9533 24.8799 54.286 24.8799C54.6871 24.8799 55.0334 24.8047 55.3251 24.6543C55.6167 24.5039 55.8423 24.2806 56.0018 23.9844C56.1659 23.6927 56.2479 23.3327 56.2479 22.9043V17.2305L56.3641 15.6035ZM51.2714 19.3838V19.2402C51.2714 18.6751 51.3374 18.1624 51.4696 17.7021C51.6063 17.2373 51.8 16.8385 52.0507 16.5059C52.3059 16.1732 52.6135 15.918 52.9735 15.7402C53.3335 15.5579 53.7391 15.4668 54.1903 15.4668C54.6552 15.4668 55.0608 15.5488 55.4071 15.7129C55.758 15.8724 56.0542 16.1071 56.2958 16.417C56.5419 16.7223 56.7356 17.0915 56.8768 17.5244C57.0181 17.9574 57.1161 18.4473 57.1708 18.9941V19.623C57.1206 20.1654 57.0227 20.653 56.8768 21.0859C56.7356 21.5189 56.5419 21.888 56.2958 22.1934C56.0542 22.4987 55.758 22.7334 55.4071 22.8975C55.0562 23.057 54.646 23.1367 54.1766 23.1367C53.7346 23.1367 53.3335 23.0433 52.9735 22.8564C52.618 22.6696 52.3127 22.4076 52.0575 22.0703C51.8023 21.7331 51.6063 21.3366 51.4696 20.8809C51.3374 20.4206 51.2714 19.9215 51.2714 19.3838ZM52.536 19.2402V19.3838C52.536 19.7529 52.5725 20.0993 52.6454 20.4229C52.7229 20.7464 52.8391 21.0312 52.994 21.2773C53.1535 21.5234 53.3563 21.7171 53.6024 21.8584C53.8485 21.9951 54.1425 22.0635 54.4843 22.0635C54.9035 22.0635 55.2499 21.9746 55.5233 21.7969C55.7968 21.6191 56.0132 21.3844 56.1727 21.0928C56.3368 20.8011 56.4644 20.4844 56.5555 20.1426V18.4951C56.5054 18.2445 56.4279 18.0029 56.3231 17.7705C56.2229 17.5335 56.0907 17.3239 55.9266 17.1416C55.7671 16.9548 55.5689 16.8066 55.3319 16.6973C55.0949 16.5879 54.8169 16.5332 54.4979 16.5332C54.1516 16.5332 53.8531 16.6061 53.6024 16.752C53.3563 16.8932 53.1535 17.0892 52.994 17.3398C52.8391 17.5859 52.7229 17.873 52.6454 18.2012C52.5725 18.5247 52.536 18.8711 52.536 19.2402ZM60.2475 12.5V23H58.976V12.5H60.2475ZM64.7871 23.1367C64.2721 23.1367 63.805 23.0501 63.3857 22.877C62.971 22.6992 62.6133 22.4508 62.3125 22.1318C62.0163 21.8128 61.7884 21.4346 61.6289 20.9971C61.4694 20.5596 61.3896 20.0811 61.3896 19.5615V19.2744C61.3896 18.6729 61.4785 18.1374 61.6562 17.668C61.834 17.194 62.0755 16.793 62.3809 16.4648C62.6862 16.1367 63.0326 15.8883 63.4199 15.7197C63.8073 15.5511 64.2083 15.4668 64.623 15.4668C65.1517 15.4668 65.6074 15.5579 65.9902 15.7402C66.3776 15.9225 66.6943 16.1777 66.9404 16.5059C67.1865 16.8294 67.3688 17.2122 67.4873 17.6543C67.6058 18.0918 67.665 18.5703 67.665 19.0898V19.6572H62.1416V18.625H66.4004V18.5293C66.3822 18.2012 66.3138 17.8822 66.1953 17.5723C66.0814 17.2624 65.8991 17.0072 65.6484 16.8066C65.3978 16.6061 65.056 16.5059 64.623 16.5059C64.3359 16.5059 64.0716 16.5674 63.8301 16.6904C63.5885 16.8089 63.3812 16.9867 63.208 17.2236C63.0348 17.4606 62.9004 17.75 62.8047 18.0918C62.709 18.4336 62.6611 18.8278 62.6611 19.2744V19.5615C62.6611 19.9124 62.709 20.2428 62.8047 20.5527C62.9049 20.8581 63.0485 21.127 63.2354 21.3594C63.4268 21.5918 63.6569 21.7741 63.9258 21.9062C64.1992 22.0384 64.5091 22.1045 64.8555 22.1045C65.3021 22.1045 65.6803 22.0133 65.9902 21.8311C66.3001 21.6488 66.5713 21.4049 66.8037 21.0996L67.5693 21.708C67.4098 21.9495 67.207 22.1797 66.9609 22.3984C66.7148 22.6172 66.4118 22.7949 66.0518 22.9316C65.6963 23.0684 65.2747 23.1367 64.7871 23.1367ZM75.3566 19.0967H72.6974V18.0234H75.3566C75.8715 18.0234 76.2885 17.9414 76.6075 17.7773C76.9266 17.6133 77.159 17.3854 77.3048 17.0938C77.4552 16.8021 77.5304 16.4694 77.5304 16.0957C77.5304 15.7539 77.4552 15.4326 77.3048 15.1318C77.159 14.8311 76.9266 14.5895 76.6075 14.4072C76.2885 14.2204 75.8715 14.127 75.3566 14.127H73.005V23H71.6857V13.0469H75.3566C76.1085 13.0469 76.7443 13.1768 77.2638 13.4365C77.7833 13.6963 78.1775 14.0563 78.4464 14.5166C78.7153 14.9723 78.8497 15.4941 78.8497 16.082C78.8497 16.7201 78.7153 17.2646 78.4464 17.7158C78.1775 18.167 77.7833 18.5111 77.2638 18.748C76.7443 18.9805 76.1085 19.0967 75.3566 19.0967ZM81.1403 12.5V23H79.8688V12.5H81.1403ZM86.9719 21.7354V17.9277C86.9719 17.6361 86.9127 17.3831 86.7942 17.1689C86.6802 16.9502 86.5071 16.7816 86.2746 16.6631C86.0422 16.5446 85.7551 16.4854 85.4133 16.4854C85.0943 16.4854 84.814 16.54 84.5725 16.6494C84.3355 16.7588 84.1487 16.9023 84.012 17.0801C83.8798 17.2578 83.8137 17.4492 83.8137 17.6543H82.5491C82.5491 17.39 82.6174 17.1279 82.7541 16.8682C82.8909 16.6084 83.0868 16.3737 83.342 16.1641C83.6018 15.9499 83.9117 15.7812 84.2717 15.6582C84.6363 15.5306 85.0419 15.4668 85.4885 15.4668C86.0263 15.4668 86.5002 15.5579 86.9104 15.7402C87.3251 15.9225 87.6487 16.1982 87.8811 16.5674C88.1181 16.932 88.2366 17.39 88.2366 17.9414V21.3867C88.2366 21.6328 88.2571 21.8949 88.2981 22.1729C88.3437 22.4508 88.4097 22.6901 88.4963 22.8906V23H87.177C87.1132 22.8542 87.0631 22.6605 87.0266 22.4189C86.9901 22.1729 86.9719 21.945 86.9719 21.7354ZM87.1907 18.5156L87.2043 19.4043H85.926C85.566 19.4043 85.2447 19.4339 84.9621 19.4932C84.6796 19.5479 84.4426 19.6322 84.2512 19.7461C84.0598 19.86 83.914 20.0036 83.8137 20.1768C83.7134 20.3454 83.6633 20.5436 83.6633 20.7715C83.6633 21.0039 83.7157 21.2158 83.8205 21.4072C83.9254 21.5986 84.0826 21.7513 84.2922 21.8652C84.5064 21.9746 84.7685 22.0293 85.0784 22.0293C85.4657 22.0293 85.8075 21.9473 86.1037 21.7832C86.4 21.6191 86.6347 21.4186 86.8078 21.1816C86.9856 20.9447 87.0813 20.7145 87.095 20.4912L87.635 21.0996C87.6031 21.291 87.5165 21.5029 87.3752 21.7354C87.234 21.9678 87.0448 22.1911 86.8078 22.4053C86.5754 22.6149 86.2974 22.7904 85.9739 22.9316C85.6549 23.0684 85.2948 23.1367 84.8938 23.1367C84.3925 23.1367 83.9527 23.0387 83.5745 22.8428C83.2008 22.6468 82.9091 22.3848 82.6995 22.0566C82.4944 21.724 82.3918 21.3525 82.3918 20.9424C82.3918 20.5459 82.4693 20.1973 82.6243 19.8965C82.7792 19.5911 83.0025 19.3382 83.2942 19.1377C83.5858 18.9326 83.9368 18.7777 84.3469 18.6729C84.7571 18.568 85.2151 18.5156 85.7209 18.5156H87.1907ZM91.6346 22.2344L93.6922 15.6035H95.0457L92.0789 24.1416C92.0105 24.3239 91.9194 24.5199 91.8055 24.7295C91.6961 24.9437 91.5548 25.1465 91.3816 25.3379C91.2085 25.5293 90.9988 25.6842 90.7527 25.8027C90.5112 25.9258 90.2218 25.9873 89.8846 25.9873C89.7843 25.9873 89.6567 25.9736 89.5018 25.9463C89.3468 25.9189 89.2374 25.8962 89.1736 25.8779L89.1668 24.8525C89.2033 24.8571 89.2602 24.8617 89.3377 24.8662C89.4197 24.8753 89.4767 24.8799 89.5086 24.8799C89.7957 24.8799 90.0395 24.8411 90.24 24.7637C90.4406 24.6908 90.6092 24.5654 90.7459 24.3877C90.8872 24.2145 91.0079 23.9753 91.1082 23.6699L91.6346 22.2344ZM90.1238 15.6035L92.0447 21.3457L92.3729 22.6787L91.4637 23.1436L88.743 15.6035H90.1238Z" fill="#FFFCFC"/>
<defs>
<clipPath id="clip0_10_410">
<rect width="14" height="14" fill="white" transform="translate(6.5 8)"/>
</clipPath>
</defs>
</svg>
